<mxfile host="app.diagrams.net" modified="2023-08-31T13:30:08.884Z" agent="Mozilla/5.0 (Windows NT 10.0; Win64; x64) AppleWebKit/537.36 (KHTML, like Gecko) Chrome/116.0.0.0 Safari/537.36" etag="_6z73YBS5-FVKQQ3i1s4" version="21.7.1" type="device">
  <diagram name="Pagina-1" id="6_Cnv6oYIry8QhEHatLO">
    <mxGraphModel dx="1615" dy="883" grid="1" gridSize="10" guides="1" tooltips="1" connect="1" arrows="1" fold="1" page="1" pageScale="1" pageWidth="827" pageHeight="1169" math="0" shadow="0">
      <root>
        <mxCell id="0" />
        <mxCell id="1" parent="0" />
        <mxCell id="xj71hvqqQoawSMKNZaLp-10" value="" style="edgeStyle=orthogonalEdgeStyle;rounded=0;orthogonalLoop=1;jettySize=auto;html=1;" edge="1" parent="1" source="xj71hvqqQoawSMKNZaLp-1" target="xj71hvqqQoawSMKNZaLp-2">
          <mxGeometry relative="1" as="geometry" />
        </mxCell>
        <mxCell id="xj71hvqqQoawSMKNZaLp-1" value="main.cpp" style="rounded=0;whiteSpace=wrap;html=1;" vertex="1" parent="1">
          <mxGeometry x="354" y="40" width="120" height="60" as="geometry" />
        </mxCell>
        <mxCell id="xj71hvqqQoawSMKNZaLp-11" value="" style="edgeStyle=orthogonalEdgeStyle;rounded=0;orthogonalLoop=1;jettySize=auto;html=1;" edge="1" parent="1" source="xj71hvqqQoawSMKNZaLp-2" target="xj71hvqqQoawSMKNZaLp-3">
          <mxGeometry relative="1" as="geometry" />
        </mxCell>
        <mxCell id="xj71hvqqQoawSMKNZaLp-2" value="antennaDelayExcel.cpp" style="rounded=0;whiteSpace=wrap;html=1;" vertex="1" parent="1">
          <mxGeometry x="346" y="140" width="136" height="60" as="geometry" />
        </mxCell>
        <mxCell id="xj71hvqqQoawSMKNZaLp-12" value="" style="edgeStyle=orthogonalEdgeStyle;rounded=0;orthogonalLoop=1;jettySize=auto;html=1;" edge="1" parent="1" source="xj71hvqqQoawSMKNZaLp-3" target="xj71hvqqQoawSMKNZaLp-4">
          <mxGeometry relative="1" as="geometry" />
        </mxCell>
        <mxCell id="xj71hvqqQoawSMKNZaLp-3" value="Wifi.cpp" style="rounded=0;whiteSpace=wrap;html=1;" vertex="1" parent="1">
          <mxGeometry x="354" y="230" width="120" height="60" as="geometry" />
        </mxCell>
        <mxCell id="xj71hvqqQoawSMKNZaLp-13" value="" style="edgeStyle=orthogonalEdgeStyle;rounded=0;orthogonalLoop=1;jettySize=auto;html=1;" edge="1" parent="1" source="xj71hvqqQoawSMKNZaLp-4" target="xj71hvqqQoawSMKNZaLp-5">
          <mxGeometry relative="1" as="geometry" />
        </mxCell>
        <mxCell id="xj71hvqqQoawSMKNZaLp-4" value="buttons.cpp" style="rounded=0;whiteSpace=wrap;html=1;" vertex="1" parent="1">
          <mxGeometry x="354" y="320" width="120" height="60" as="geometry" />
        </mxCell>
        <mxCell id="xj71hvqqQoawSMKNZaLp-14" value="" style="edgeStyle=orthogonalEdgeStyle;rounded=0;orthogonalLoop=1;jettySize=auto;html=1;" edge="1" parent="1" source="xj71hvqqQoawSMKNZaLp-5" target="xj71hvqqQoawSMKNZaLp-8">
          <mxGeometry relative="1" as="geometry" />
        </mxCell>
        <mxCell id="xj71hvqqQoawSMKNZaLp-5" value="menu.cpp" style="rounded=0;whiteSpace=wrap;html=1;" vertex="1" parent="1">
          <mxGeometry x="354" y="420" width="120" height="60" as="geometry" />
        </mxCell>
        <mxCell id="xj71hvqqQoawSMKNZaLp-17" value="" style="edgeStyle=orthogonalEdgeStyle;rounded=0;orthogonalLoop=1;jettySize=auto;html=1;" edge="1" parent="1" source="xj71hvqqQoawSMKNZaLp-6" target="xj71hvqqQoawSMKNZaLp-9">
          <mxGeometry relative="1" as="geometry" />
        </mxCell>
        <mxCell id="xj71hvqqQoawSMKNZaLp-6" value="anchorManager.cpp" style="rounded=0;whiteSpace=wrap;html=1;" vertex="1" parent="1">
          <mxGeometry x="354" y="710" width="120" height="60" as="geometry" />
        </mxCell>
        <mxCell id="xj71hvqqQoawSMKNZaLp-16" value="" style="edgeStyle=orthogonalEdgeStyle;rounded=0;orthogonalLoop=1;jettySize=auto;html=1;" edge="1" parent="1" source="xj71hvqqQoawSMKNZaLp-7" target="xj71hvqqQoawSMKNZaLp-6">
          <mxGeometry relative="1" as="geometry" />
        </mxCell>
        <mxCell id="xj71hvqqQoawSMKNZaLp-7" value="calculations.cpp" style="rounded=0;whiteSpace=wrap;html=1;" vertex="1" parent="1">
          <mxGeometry x="354" y="620" width="120" height="60" as="geometry" />
        </mxCell>
        <mxCell id="xj71hvqqQoawSMKNZaLp-15" value="" style="edgeStyle=orthogonalEdgeStyle;rounded=0;orthogonalLoop=1;jettySize=auto;html=1;" edge="1" parent="1" source="xj71hvqqQoawSMKNZaLp-8" target="xj71hvqqQoawSMKNZaLp-7">
          <mxGeometry relative="1" as="geometry" />
        </mxCell>
        <mxCell id="xj71hvqqQoawSMKNZaLp-8" value="i2c.cpp" style="rounded=0;whiteSpace=wrap;html=1;" vertex="1" parent="1">
          <mxGeometry x="354" y="510" width="120" height="60" as="geometry" />
        </mxCell>
        <mxCell id="xj71hvqqQoawSMKNZaLp-9" value="settings.cpp" style="rounded=0;whiteSpace=wrap;html=1;" vertex="1" parent="1">
          <mxGeometry x="354" y="800" width="120" height="60" as="geometry" />
        </mxCell>
      </root>
    </mxGraphModel>
  </diagram>
</mxfile>
